<svg width="590" height="64" viewBox="0 0 590 64" fill="none" xmlns="http://www.w3.org/2000/svg">
<mask id="path-1-outside-1_44_158" maskUnits="userSpaceOnUse" x="-1" y="-1" width="593" height="66" fill="black">
<rect fill="white" x="-1" y="-1" width="593" height="66"/>
<path d="M19 32.7273H28.8182L32.3636 37.1818L38.3636 44L46.1818 53.4545H35L29.4545 47L25.7273 41.6364L19 32.7273ZM46.0909 26.7273C46.0909 31.9091 45.0833 36.2803 43.0682 39.8409C41.053 43.3864 38.3333 46.0758 34.9091 47.9091C31.4848 49.7273 27.6667 50.6364 23.4545 50.6364C19.2121 50.6364 15.3788 49.7197 11.9545 47.8864C8.54545 46.0379 5.83333 43.3409 3.81818 39.7955C1.81818 36.2348 0.818182 31.8788 0.818182 26.7273C0.818182 21.5455 1.81818 17.1818 3.81818 13.6364C5.83333 10.0758 8.54545 7.38636 11.9545 5.56818C15.3788 3.73485 19.2121 2.81818 23.4545 2.81818C27.6667 2.81818 31.4848 3.73485 34.9091 5.56818C38.3333 7.38636 41.053 10.0758 43.0682 13.6364C45.0833 17.1818 46.0909 21.5455 46.0909 26.7273ZM33.0909 26.7273C33.0909 23.9394 32.7197 21.5909 31.9773 19.6818C31.25 17.7576 30.1667 16.303 28.7273 15.3182C27.303 14.3182 25.5455 13.8182 23.4545 13.8182C21.3636 13.8182 19.5985 14.3182 18.1591 15.3182C16.7348 16.303 15.6515 17.7576 14.9091 19.6818C14.1818 21.5909 13.8182 23.9394 13.8182 26.7273C13.8182 29.5152 14.1818 31.8712 14.9091 33.7955C15.6515 35.7045 16.7348 37.1591 18.1591 38.1591C19.5985 39.1439 21.3636 39.6364 23.4545 39.6364C25.5455 39.6364 27.303 39.1439 28.7273 38.1591C30.1667 37.1591 31.25 35.7045 31.9773 33.7955C32.7197 31.8712 33.0909 29.5152 33.0909 26.7273ZM74.8182 34.7273V15.0909H87.3636V50H75.4545V43.3636H75.0909C74.3333 45.5909 73.0076 47.3333 71.1136 48.5909C69.2197 49.8333 66.9697 50.4545 64.3636 50.4545C61.9242 50.4545 59.7879 49.8939 57.9545 48.7727C56.1364 47.6515 54.7197 46.1061 53.7045 44.1364C52.7045 42.1667 52.197 39.9091 52.1818 37.3636V15.0909H64.7273V34.7273C64.7424 36.4545 65.1818 37.8106 66.0455 38.7955C66.9242 39.7803 68.1515 40.2727 69.7273 40.2727C70.7727 40.2727 71.6742 40.053 72.4318 39.6136C73.2045 39.1591 73.7955 38.5227 74.2045 37.7045C74.6288 36.8712 74.8333 35.8788 74.8182 34.7273ZM103.472 50.5455C101.244 50.5455 99.2746 50.1818 97.5625 49.4545C95.8655 48.7121 94.5322 47.5909 93.5625 46.0909C92.5928 44.5909 92.108 42.6818 92.108 40.3636C92.108 38.4545 92.4337 36.8258 93.0852 35.4773C93.7367 34.1136 94.6458 33 95.8125 32.1364C96.9792 31.2727 98.3352 30.6136 99.8807 30.1591C101.441 29.7045 103.123 29.4091 104.926 29.2727C106.881 29.1212 108.449 28.9394 109.631 28.7273C110.828 28.5 111.691 28.1894 112.222 27.7955C112.752 27.3864 113.017 26.8485 113.017 26.1818V26.0909C113.017 25.1818 112.669 24.4848 111.972 24C111.275 23.5152 110.381 23.2727 109.29 23.2727C108.093 23.2727 107.116 23.5379 106.358 24.0682C105.616 24.5833 105.169 25.3788 105.017 26.4545H93.4716C93.6231 24.3333 94.2973 22.3788 95.4943 20.5909C96.7064 18.7879 98.4716 17.3485 100.79 16.2727C103.108 15.1818 106.002 14.6364 109.472 14.6364C111.972 14.6364 114.214 14.9318 116.199 15.5227C118.184 16.0985 119.873 16.9091 121.267 17.9545C122.661 18.9848 123.722 20.197 124.449 21.5909C125.191 22.9697 125.562 24.4697 125.562 26.0909V50H113.835V45.0909H113.562C112.866 46.3939 112.017 47.447 111.017 48.25C110.032 49.053 108.903 49.6364 107.631 50C106.373 50.3636 104.987 50.5455 103.472 50.5455ZM107.562 42.6364C108.517 42.6364 109.411 42.4394 110.244 42.0455C111.093 41.6515 111.782 41.0833 112.312 40.3409C112.843 39.5985 113.108 38.697 113.108 37.6364V34.7273C112.775 34.8636 112.419 34.9924 112.04 35.1136C111.676 35.2348 111.282 35.3485 110.858 35.4545C110.449 35.5606 110.009 35.6591 109.54 35.75C109.085 35.8409 108.608 35.9242 108.108 36C107.138 36.1515 106.343 36.4015 105.722 36.75C105.116 37.0833 104.661 37.5 104.358 38C104.07 38.4848 103.926 39.0303 103.926 39.6364C103.926 40.6061 104.267 41.3485 104.949 41.8636C105.631 42.3788 106.502 42.6364 107.562 42.6364ZM144.102 3.45454V50H131.557V3.45454H144.102ZM150.494 50V15.0909H163.04V50H150.494ZM156.767 11.4545C155.07 11.4545 153.616 10.8939 152.403 9.77273C151.191 8.65151 150.585 7.30303 150.585 5.72727C150.585 4.15151 151.191 2.80303 152.403 1.68182C153.616 0.560605 155.07 0 156.767 0C158.479 0 159.934 0.560605 161.131 1.68182C162.343 2.80303 162.949 4.15151 162.949 5.72727C162.949 7.30303 162.343 8.65151 161.131 9.77273C159.934 10.8939 158.479 11.4545 156.767 11.4545ZM190.25 15.0909V24.1818H167.25V15.0909H190.25ZM171.705 6.72727H184.25V38.7727C184.25 39.2576 184.333 39.6667 184.5 40C184.667 40.3182 184.924 40.5606 185.273 40.7273C185.621 40.8788 186.068 40.9545 186.614 40.9545C186.992 40.9545 187.432 40.9091 187.932 40.8182C188.447 40.7273 188.826 40.6515 189.068 40.5909L190.886 49.4091C190.326 49.5758 189.523 49.7803 188.477 50.0227C187.447 50.2652 186.22 50.4242 184.795 50.5C181.917 50.6515 179.5 50.3561 177.545 49.6136C175.591 48.8561 174.121 47.6667 173.136 46.0455C172.152 44.4242 171.674 42.3939 171.705 39.9545V6.72727ZM203.006 63.0909C201.566 63.0909 200.195 62.9773 198.892 62.75C197.589 62.5379 196.445 62.2424 195.46 61.8636L198.188 52.9545C199.218 53.3182 200.157 53.553 201.006 53.6591C201.869 53.7652 202.604 53.7045 203.21 53.4773C203.831 53.25 204.278 52.8182 204.551 52.1818L204.824 51.5455L192.551 15.0909H205.642L211.278 39.2727H211.642L217.369 15.0909H230.551L217.824 52.9091C217.188 54.8333 216.263 56.5606 215.051 58.0909C213.854 59.6364 212.278 60.8561 210.324 61.75C208.369 62.6439 205.93 63.0909 203.006 63.0909ZM263.688 50.6364C259.9 50.6364 256.657 49.8864 253.96 48.3864C251.263 46.8712 249.195 44.7652 247.756 42.0682C246.316 39.3561 245.597 36.2121 245.597 32.6364C245.597 29.0606 246.316 25.9242 247.756 23.2273C249.195 20.5152 251.263 18.4091 253.96 16.9091C256.657 15.3939 259.9 14.6364 263.688 14.6364C267.475 14.6364 270.718 15.3939 273.415 16.9091C276.112 18.4091 278.18 20.5152 279.619 23.2273C281.059 25.9242 281.778 29.0606 281.778 32.6364C281.778 36.2121 281.059 39.3561 279.619 42.0682C278.18 44.7652 276.112 46.8712 273.415 48.3864C270.718 49.8864 267.475 50.6364 263.688 50.6364ZM263.778 41.3636C264.839 41.3636 265.756 41.0076 266.528 40.2955C267.301 39.5833 267.9 38.5682 268.324 37.25C268.748 35.9318 268.96 34.3636 268.96 32.5455C268.96 30.7121 268.748 29.1439 268.324 27.8409C267.9 26.5227 267.301 25.5076 266.528 24.7955C265.756 24.0833 264.839 23.7273 263.778 23.7273C262.657 23.7273 261.695 24.0833 260.892 24.7955C260.089 25.5076 259.475 26.5227 259.051 27.8409C258.627 29.1439 258.415 30.7121 258.415 32.5455C258.415 34.3636 258.627 35.9318 259.051 37.25C259.475 38.5682 260.089 39.5833 260.892 40.2955C261.695 41.0076 262.657 41.3636 263.778 41.3636ZM309.506 34.7273V15.0909H322.051V50H310.142V43.3636H309.778C309.021 45.5909 307.695 47.3333 305.801 48.5909C303.907 49.8333 301.657 50.4545 299.051 50.4545C296.612 50.4545 294.475 49.8939 292.642 48.7727C290.824 47.6515 289.407 46.1061 288.392 44.1364C287.392 42.1667 286.884 39.9091 286.869 37.3636V15.0909H299.415V34.7273C299.43 36.4545 299.869 37.8106 300.733 38.7955C301.612 39.7803 302.839 40.2727 304.415 40.2727C305.46 40.2727 306.362 40.053 307.119 39.6136C307.892 39.1591 308.483 38.5227 308.892 37.7045C309.316 36.8712 309.521 35.8788 309.506 34.7273ZM328.432 50V15.0909H340.614V21.7273H340.977C341.614 19.2727 342.621 17.4773 344 16.3409C345.394 15.2045 347.023 14.6364 348.886 14.6364C349.432 14.6364 349.97 14.6818 350.5 14.7727C351.045 14.8485 351.568 14.9621 352.068 15.1136V25.8182C351.447 25.6061 350.682 25.447 349.773 25.3409C348.864 25.2348 348.083 25.1818 347.432 25.1818C346.205 25.1818 345.098 25.4621 344.114 26.0227C343.144 26.5682 342.379 27.3409 341.818 28.3409C341.258 29.3258 340.977 30.4848 340.977 31.8182V50H328.432ZM368.75 50V3.45454H381.295V21.1818H381.477C381.932 20 382.598 18.9167 383.477 17.9318C384.356 16.9318 385.447 16.1364 386.75 15.5455C388.053 14.9394 389.568 14.6364 391.295 14.6364C393.598 14.6364 395.788 15.25 397.864 16.4773C399.955 17.7045 401.652 19.6364 402.955 22.2727C404.273 24.9091 404.932 28.3333 404.932 32.5455C404.932 36.5758 404.303 39.9167 403.045 42.5682C401.803 45.2197 400.136 47.197 398.045 48.5C395.97 49.803 393.689 50.4545 391.205 50.4545C389.568 50.4545 388.106 50.1894 386.818 49.6591C385.545 49.1136 384.455 48.3788 383.545 47.4545C382.652 46.5152 381.962 45.4545 381.477 44.2727H381.205V50H368.75ZM381.023 32.5455C381.023 34.2424 381.242 35.7121 381.682 36.9545C382.136 38.1818 382.773 39.1364 383.591 39.8182C384.424 40.4848 385.417 40.8182 386.568 40.8182C387.72 40.8182 388.697 40.4924 389.5 39.8409C390.318 39.1742 390.939 38.2273 391.364 37C391.803 35.7576 392.023 34.2727 392.023 32.5455C392.023 30.8182 391.803 29.3409 391.364 28.1136C390.939 26.8712 390.318 25.9242 389.5 25.2727C388.697 24.6061 387.72 24.2727 386.568 24.2727C385.417 24.2727 384.424 24.6061 383.591 25.2727C382.773 25.9242 382.136 26.8712 381.682 28.1136C381.242 29.3409 381.023 30.8182 381.023 32.5455ZM426.909 50.6364C423.182 50.6364 419.97 49.9242 417.273 48.5C414.591 47.0606 412.523 45 411.068 42.3182C409.629 39.6212 408.909 36.3939 408.909 32.6364C408.909 29.0303 409.636 25.8788 411.091 23.1818C412.545 20.4848 414.598 18.3864 417.25 16.8864C419.902 15.3864 423.03 14.6364 426.636 14.6364C429.273 14.6364 431.659 15.0455 433.795 15.8636C435.932 16.6818 437.758 17.8712 439.273 19.4318C440.788 20.9773 441.955 22.8561 442.773 25.0682C443.591 27.2803 444 29.7727 444 32.5455V35.4545H412.818V28.5455H432.455C432.439 27.5455 432.182 26.6667 431.682 25.9091C431.197 25.1364 430.538 24.5379 429.705 24.1136C428.886 23.6742 427.955 23.4545 426.909 23.4545C425.894 23.4545 424.962 23.6742 424.114 24.1136C423.265 24.5379 422.583 25.1288 422.068 25.8864C421.568 26.6439 421.303 27.5303 421.273 28.5455V36C421.273 37.1212 421.508 38.1212 421.977 39C422.447 39.8788 423.121 40.5682 424 41.0682C424.879 41.5682 425.939 41.8182 427.182 41.8182C428.045 41.8182 428.833 41.697 429.545 41.4545C430.273 41.2121 430.894 40.8636 431.409 40.4091C431.924 39.9394 432.303 39.3788 432.545 38.7273H444C443.606 41.1515 442.674 43.2576 441.205 45.0455C439.735 46.8182 437.788 48.197 435.364 49.1818C432.955 50.1515 430.136 50.6364 426.909 50.6364ZM460.392 41.7273L460.483 26.8182H462.119L470.574 15.0909H484.665L470.483 33.3636H466.938L460.392 41.7273ZM449.119 50V3.45454H461.665V50H449.119ZM470.665 50L462.665 36.1818L470.847 27.2727L485.028 50H470.665ZM497.659 50.5455C495.432 50.5455 493.462 50.1818 491.75 49.4545C490.053 48.7121 488.72 47.5909 487.75 46.0909C486.78 44.5909 486.295 42.6818 486.295 40.3636C486.295 38.4545 486.621 36.8258 487.273 35.4773C487.924 34.1136 488.833 33 490 32.1364C491.167 31.2727 492.523 30.6136 494.068 30.1591C495.629 29.7045 497.311 29.4091 499.114 29.2727C501.068 29.1212 502.636 28.9394 503.818 28.7273C505.015 28.5 505.879 28.1894 506.409 27.7955C506.939 27.3864 507.205 26.8485 507.205 26.1818V26.0909C507.205 25.1818 506.856 24.4848 506.159 24C505.462 23.5152 504.568 23.2727 503.477 23.2727C502.28 23.2727 501.303 23.5379 500.545 24.0682C499.803 24.5833 499.356 25.3788 499.205 26.4545H487.659C487.811 24.3333 488.485 22.3788 489.682 20.5909C490.894 18.7879 492.659 17.3485 494.977 16.2727C497.295 15.1818 500.189 14.6364 503.659 14.6364C506.159 14.6364 508.402 14.9318 510.386 15.5227C512.371 16.0985 514.061 16.9091 515.455 17.9545C516.848 18.9848 517.909 20.197 518.636 21.5909C519.379 22.9697 519.75 24.4697 519.75 26.0909V50H508.023V45.0909H507.75C507.053 46.3939 506.205 47.447 505.205 48.25C504.22 49.053 503.091 49.6364 501.818 50C500.561 50.3636 499.174 50.5455 497.659 50.5455ZM501.75 42.6364C502.705 42.6364 503.598 42.4394 504.432 42.0455C505.28 41.6515 505.97 41.0833 506.5 40.3409C507.03 39.5985 507.295 38.697 507.295 37.6364V34.7273C506.962 34.8636 506.606 34.9924 506.227 35.1136C505.864 35.2348 505.47 35.3485 505.045 35.4545C504.636 35.5606 504.197 35.6591 503.727 35.75C503.273 35.8409 502.795 35.9242 502.295 36C501.326 36.1515 500.53 36.4015 499.909 36.75C499.303 37.0833 498.848 37.5 498.545 38C498.258 38.4848 498.114 39.0303 498.114 39.6364C498.114 40.6061 498.455 41.3485 499.136 41.8636C499.818 42.3788 500.689 42.6364 501.75 42.6364ZM525.744 50V15.0909H537.926V21.7273H538.29C538.926 19.2727 539.934 17.4773 541.312 16.3409C542.706 15.2045 544.335 14.6364 546.199 14.6364C546.744 14.6364 547.282 14.6818 547.812 14.7727C548.358 14.8485 548.881 14.9621 549.381 15.1136V25.8182C548.759 25.6061 547.994 25.447 547.085 25.3409C546.176 25.2348 545.396 25.1818 544.744 25.1818C543.517 25.1818 542.411 25.4621 541.426 26.0227C540.456 26.5682 539.691 27.3409 539.131 28.3409C538.57 29.3258 538.29 30.4848 538.29 31.8182V50H525.744ZM562.193 63.0909C560.754 63.0909 559.383 62.9773 558.08 62.75C556.777 62.5379 555.633 62.2424 554.648 61.8636L557.375 52.9545C558.405 53.3182 559.345 53.553 560.193 53.6591C561.057 53.7652 561.792 53.7045 562.398 53.4773C563.019 53.25 563.466 52.8182 563.739 52.1818L564.011 51.5455L551.739 15.0909H564.83L570.466 39.2727H570.83L576.557 15.0909H589.739L577.011 52.9091C576.375 54.8333 575.451 56.5606 574.239 58.0909C573.042 59.6364 571.466 60.8561 569.511 61.75C567.557 62.6439 565.117 63.0909 562.193 63.0909Z"/>
</mask>
<path d="M19 32.7273V31.7273H16.9918L18.202 33.3299L19 32.7273ZM28.8182 32.7273L29.6006 32.1045L29.3003 31.7273H28.8182V32.7273ZM32.3636 37.1818L31.5812 37.8046L31.5966 37.8239L31.6129 37.8424L32.3636 37.1818ZM38.3636 44L39.1343 43.3627L39.1245 43.3509L39.1143 43.3394L38.3636 44ZM46.1818 53.4545V54.4545H48.3064L46.9525 52.8173L46.1818 53.4545ZM35 53.4545L34.2415 54.1062L34.5408 54.4545H35V53.4545ZM29.4545 47L28.6334 47.5707L28.6626 47.6128L28.696 47.6517L29.4545 47ZM25.7273 41.6364L26.5485 41.0657L26.5372 41.0495L26.5253 41.0338L25.7273 41.6364ZM43.0682 39.8409L43.9376 40.335L43.9385 40.3335L43.0682 39.8409ZM34.9091 47.9091L35.3781 48.7923L35.3811 48.7907L34.9091 47.9091ZM11.9545 47.8864L11.4779 48.7655L11.4825 48.768L11.9545 47.8864ZM3.81818 39.7955L2.9463 40.2852L2.9488 40.2896L3.81818 39.7955ZM3.81818 13.6364L2.94789 13.1438L2.9472 13.145L3.81818 13.6364ZM11.9545 5.56818L12.4251 6.45053L12.4266 6.44978L11.9545 5.56818ZM34.9091 5.56818L34.4371 6.44978L34.4401 6.4514L34.9091 5.56818ZM43.0682 13.6364L42.1979 14.1289L42.1988 14.1305L43.0682 13.6364ZM31.9773 19.6818L31.0418 20.0354L31.0453 20.0443L31.9773 19.6818ZM28.7273 15.3182L28.1526 16.1367L28.1626 16.1435L28.7273 15.3182ZM18.1591 15.3182L18.7278 16.1407L18.7297 16.1394L18.1591 15.3182ZM14.9091 19.6818L13.9761 19.3219L13.9746 19.3258L14.9091 19.6818ZM14.9091 33.7955L13.9736 34.149L13.9771 34.1579L14.9091 33.7955ZM18.1591 38.1591L17.5844 38.9776L17.5944 38.9844L18.1591 38.1591ZM28.7273 38.1591L29.296 38.9816L29.2978 38.9803L28.7273 38.1591ZM31.9773 33.7955L31.0443 33.4355L31.0428 33.4395L31.9773 33.7955ZM19 33.7273H28.8182V31.7273H19V33.7273ZM28.0358 33.35L31.5812 37.8046L33.1461 36.5591L29.6006 32.1045L28.0358 33.35ZM31.6129 37.8424L37.6129 44.6606L39.1143 43.3394L33.1143 36.5212L31.6129 37.8424ZM37.593 44.6373L45.4112 54.0918L46.9525 52.8173L39.1343 43.3627L37.593 44.6373ZM46.1818 52.4545H35V54.4545H46.1818V52.4545ZM35.7585 52.8029L30.213 46.3483L28.696 47.6517L34.2415 54.1062L35.7585 52.8029ZM30.2757 46.4293L26.5485 41.0657L24.9061 42.207L28.6334 47.5707L30.2757 46.4293ZM26.5253 41.0338L19.798 32.1247L18.202 33.3299L24.9292 42.239L26.5253 41.0338ZM45.0909 26.7273C45.0909 31.7817 44.1082 35.973 42.1979 39.3484L43.9385 40.3335C46.0584 36.5877 47.0909 32.0365 47.0909 26.7273H45.0909ZM42.1988 39.3468C40.272 42.7368 37.6865 45.2878 34.4371 47.0275L35.3811 48.7907C38.9802 46.8637 41.8341 44.036 43.9376 40.335L42.1988 39.3468ZM34.4401 47.0259C31.1726 48.7609 27.5176 49.6364 23.4545 49.6364V51.6364C27.8157 51.6364 31.7971 50.6937 35.3781 48.7923L34.4401 47.0259ZM23.4545 49.6364C19.3613 49.6364 15.6925 48.7534 12.4266 47.0048L11.4825 48.768C15.0651 50.686 19.063 51.6364 23.4545 51.6364V49.6364ZM12.4312 47.0073C9.19509 45.2526 6.61535 42.6931 4.68757 39.3013L2.9488 40.2896C5.05132 43.9888 7.89582 46.8232 11.4779 48.7654L12.4312 47.0073ZM4.69005 39.3057C2.79328 35.9289 1.81818 31.7513 1.81818 26.7273H-0.181818C-0.181818 32.0062 0.843079 36.5408 2.94631 40.2852L4.69005 39.3057ZM1.81818 26.7273C1.81818 21.6715 2.79381 17.4876 4.68916 14.1277L2.9472 13.145C0.842555 16.876 -0.181818 21.4194 -0.181818 26.7273H1.81818ZM4.68847 14.1289C6.61587 10.7234 9.19363 8.174 12.4251 6.45053L11.484 4.68583C7.89728 6.59872 5.0508 9.42816 2.9479 13.1438L4.68847 14.1289ZM12.4266 6.44978C15.6925 4.70119 19.3613 3.81818 23.4545 3.81818V1.81818C19.063 1.81818 15.0651 2.7685 11.4825 4.68658L12.4266 6.44978ZM23.4545 3.81818C27.5162 3.81818 31.1701 4.70063 34.4371 6.44978L35.3811 4.68658C31.7996 2.76906 27.8171 1.81818 23.4545 1.81818V3.81818ZM34.4401 6.4514C37.6866 8.1752 40.2711 10.7245 42.1979 14.1289L43.9385 13.1438C41.8349 9.42703 38.98 6.59752 35.3781 4.68496L34.4401 6.4514ZM42.1988 14.1305C44.1082 17.4898 45.0909 21.6727 45.0909 26.7273H47.0909C47.0909 21.4182 46.0585 16.8738 43.9376 13.1422L42.1988 14.1305ZM34.0909 26.7273C34.0909 23.8573 33.7097 21.3775 32.9093 19.3194L31.0453 20.0443C31.7297 21.8043 32.0909 24.0215 32.0909 26.7273H34.0909ZM32.9127 19.3283C32.1264 17.2478 30.9289 15.6129 29.292 14.4929L28.1626 16.1435C29.4044 16.9931 30.3736 18.2674 31.0419 20.0354L32.9127 19.3283ZM29.3019 14.4998C27.6778 13.3594 25.7088 12.8182 23.4545 12.8182V14.8182C25.3821 14.8182 26.9283 15.2769 28.1526 16.1366L29.3019 14.4998ZM23.4545 12.8182C21.1999 12.8182 19.2257 13.3595 17.5885 14.4969L18.7297 16.1394C19.9713 15.2768 21.5274 14.8182 23.4545 14.8182V12.8182ZM17.5903 14.4957C15.9716 15.615 14.7767 17.2469 13.9761 19.3219L15.8421 20.0418C16.5263 18.2683 17.4981 16.991 18.7278 16.1407L17.5903 14.4957ZM13.9746 19.3258C13.1914 21.3818 12.8182 23.8592 12.8182 26.7273H14.8182C14.8182 24.0196 15.1723 21.8 15.8436 20.0378L13.9746 19.3258ZM12.8182 26.7273C12.8182 29.5958 13.1915 32.0795 13.9737 34.149L15.8445 33.4419C15.1721 31.6629 14.8182 29.4345 14.8182 26.7273H12.8182ZM13.9771 34.1579C14.7781 36.2177 15.9718 37.8452 17.5845 38.9775L18.7337 37.3407C17.4979 36.473 16.5249 35.1914 15.8411 33.433L13.9771 34.1579ZM17.5944 38.9844C19.2309 40.1041 21.2029 40.6364 23.4545 40.6364V38.6364C21.5244 38.6364 19.9661 38.1838 18.7238 37.3338L17.5944 38.9844ZM23.4545 40.6364C25.7058 40.6364 27.6725 40.1042 29.296 38.9816L28.1585 37.3366C26.9335 38.1837 25.3851 38.6364 23.4545 38.6364V40.6364ZM29.2978 38.9803C30.9287 37.8473 32.125 36.2167 32.9118 34.1514L31.0428 33.4395C30.375 35.1924 29.4047 36.4708 28.1567 37.3378L29.2978 38.9803ZM32.9102 34.1554C33.7095 32.0837 34.0909 29.5977 34.0909 26.7273H32.0909C32.0909 29.4326 31.7299 31.6587 31.0443 33.4355L32.9102 34.1554ZM74.8182 34.7273H73.8181L73.8183 34.7404L74.8182 34.7273ZM74.8182 15.0909V14.0909H73.8182V15.0909H74.8182ZM87.3636 15.0909H88.3636V14.0909H87.3636V15.0909ZM87.3636 50V51H88.3636V50H87.3636ZM75.4545 50H74.4545V51H75.4545V50ZM75.4545 43.3636H76.4545V42.3636H75.4545V43.3636ZM75.0909 43.3636V42.3636H74.3748L74.1442 43.0416L75.0909 43.3636ZM71.1136 48.5909L71.6622 49.4271L71.6668 49.424L71.1136 48.5909ZM57.9545 48.7727L57.4297 49.6239L57.4328 49.6258L57.9545 48.7727ZM53.7045 44.1364L52.8129 44.5891L52.8157 44.5945L53.7045 44.1364ZM52.1818 37.3636H51.1818L51.1818 37.3696L52.1818 37.3636ZM52.1818 15.0909V14.0909H51.1818V15.0909H52.1818ZM64.7273 15.0909H65.7273V14.0909H64.7273V15.0909ZM64.7273 34.7273H63.7272L63.7273 34.736L64.7273 34.7273ZM66.0455 38.7955L65.2936 39.4548L65.2993 39.4612L66.0455 38.7955ZM72.4318 39.6136L72.9335 40.4787L72.9388 40.4756L72.4318 39.6136ZM74.2045 37.7045L73.3134 37.2509L73.3101 37.2573L74.2045 37.7045ZM75.8182 34.7273V15.0909H73.8182V34.7273H75.8182ZM74.8182 16.0909H87.3636V14.0909H74.8182V16.0909ZM86.3636 15.0909V50H88.3636V15.0909H86.3636ZM87.3636 49H75.4545V51H87.3636V49ZM76.4545 50V43.3636H74.4545V50H76.4545ZM75.4545 42.3636H75.0909V44.3636H75.4545V42.3636ZM74.1442 43.0416C73.4551 45.0676 72.2636 46.627 70.5605 47.7578L71.6668 49.424C73.7516 48.0397 75.2116 46.1142 76.0376 43.6857L74.1442 43.0416ZM70.5651 47.7548C68.8576 48.8749 66.8049 49.4545 64.3636 49.4545V51.4545C67.1345 51.4545 69.5818 50.7918 71.6621 49.4271L70.5651 47.7548ZM64.3636 49.4545C62.0829 49.4545 60.1322 48.9323 58.4763 47.9196L57.4328 49.6258C59.4436 50.8556 61.7656 51.4545 64.3636 51.4545V49.4545ZM58.4794 47.9216C56.822 46.8995 55.5285 45.4926 54.5934 43.6782L52.8157 44.5945C53.9109 46.7195 55.4507 48.4035 57.4297 49.6239L58.4794 47.9216ZM54.5962 43.6837C53.6765 41.8722 53.1962 39.7715 53.1818 37.3577L51.1818 37.3696C51.1978 40.0466 51.7326 42.4612 52.8129 44.5891L54.5962 43.6837ZM53.1818 37.3636V15.0909H51.1818V37.3636H53.1818ZM52.1818 16.0909H64.7273V14.0909H52.1818V16.0909ZM63.7273 15.0909V34.7273H65.7273V15.0909H63.7273ZM63.7273 34.736C63.7439 36.6254 64.2275 38.239 65.2936 39.4548L66.7973 38.1361C66.1362 37.3822 65.741 36.2837 65.7272 34.7185L63.7273 34.736ZM65.2993 39.4612C66.4046 40.6999 67.9269 41.2727 69.7273 41.2727V39.2727C68.3762 39.2727 67.4439 38.8607 66.7916 38.1297L65.2993 39.4612ZM69.7273 41.2727C70.9147 41.2727 71.9964 41.0222 72.9335 40.4787L71.9301 38.7486C71.3521 39.0839 70.6308 39.2727 69.7273 39.2727V41.2727ZM72.9388 40.4756C73.8816 39.921 74.6054 39.139 75.099 38.1518L73.3101 37.2573C72.9855 37.9065 72.5275 38.3972 71.9248 38.7517L72.9388 40.4756ZM75.0957 38.1582C75.6086 37.1507 75.8349 35.9908 75.8181 34.7141L73.8183 34.7404C73.8318 35.7668 73.6489 36.5917 73.3134 37.2509L75.0957 38.1582ZM97.5625 49.4545L97.1617 50.3708L97.1715 50.375L97.5625 49.4545ZM93.5625 46.0909L92.7227 46.6338L93.5625 46.0909ZM93.0852 35.4773L93.9856 35.9123L93.9875 35.9084L93.0852 35.4773ZM95.8125 32.1364L96.4075 32.9401L95.8125 32.1364ZM99.8807 30.1591L99.601 29.199L99.5985 29.1997L99.8807 30.1591ZM104.926 29.2727L105.002 30.2699L105.003 30.2697L104.926 29.2727ZM109.631 28.7273L109.807 29.7116L109.817 29.7097L109.631 28.7273ZM112.222 27.7955L112.818 28.5982L112.825 28.5928L112.832 28.5872L112.222 27.7955ZM111.972 24L111.401 24.8209L111.972 24ZM106.358 24.0682L106.928 24.8898L106.931 24.8874L106.358 24.0682ZM105.017 26.4545V27.4545H105.886L106.007 26.594L105.017 26.4545ZM93.4716 26.4545L92.4741 26.3833L92.3976 27.4545H93.4716V26.4545ZM95.4943 20.5909L94.6644 20.033L94.6634 20.0346L95.4943 20.5909ZM100.79 16.2727L101.211 17.1798L101.216 17.1775L100.79 16.2727ZM116.199 15.5227L115.914 16.4812L115.92 16.4831L116.199 15.5227ZM121.267 17.9545L120.667 18.7546L120.673 18.7587L121.267 17.9545ZM124.449 21.5909L123.562 22.0535L123.568 22.065L124.449 21.5909ZM125.562 50V51H126.562V50H125.562ZM113.835 50H112.835V51H113.835V50ZM113.835 45.0909H114.835V44.0909H113.835V45.0909ZM113.562 45.0909V44.0909H112.963L112.681 44.6193L113.562 45.0909ZM111.017 48.25L110.391 47.4703L110.385 47.475L111.017 48.25ZM107.631 50L107.356 49.0385L107.353 49.0394L107.631 50ZM110.244 42.0455L109.823 41.1384L109.817 41.1414L110.244 42.0455ZM112.312 40.3409L111.499 39.7597L112.312 40.3409ZM113.108 34.7273H114.108V33.2377L112.729 33.8017L113.108 34.7273ZM112.04 35.1136L111.735 34.1611L111.724 34.165L112.04 35.1136ZM110.858 35.4545L110.615 34.4844L110.607 34.4865L110.858 35.4545ZM109.54 35.75L109.35 34.7682L109.344 34.7694L109.54 35.75ZM108.108 36L107.958 35.0113L107.954 35.012L108.108 36ZM105.722 36.75L106.204 37.6262L106.211 37.6221L105.722 36.75ZM104.358 38L103.503 37.4817L103.498 37.4895L104.358 38ZM104.949 41.8636L105.552 41.0658L104.949 41.8636ZM103.472 49.5455C101.353 49.5455 99.5201 49.1996 97.9535 48.5341L97.1715 50.375C99.0292 51.164 101.136 51.5455 103.472 51.5455V49.5455ZM97.9633 48.5384C96.4391 47.8715 95.2614 46.8769 94.4023 45.548L92.7227 46.6338C93.803 48.3049 95.292 49.5527 97.1617 50.3707L97.9633 48.5384ZM94.4023 45.548C93.5642 44.2515 93.108 42.5458 93.108 40.3636H91.108C91.108 42.8179 91.6215 44.9303 92.7227 46.6338L94.4023 45.548ZM93.108 40.3636C93.108 38.5651 93.4151 37.0931 93.9856 35.9123L92.1848 35.0422C91.4523 36.5584 91.108 38.344 91.108 40.3636H93.108ZM93.9875 35.9084C94.5716 34.6859 95.3776 33.7024 96.4075 32.9401L95.2175 31.3326C93.914 32.2976 92.9019 33.5414 92.1829 35.0462L93.9875 35.9084ZM96.4075 32.9401C97.47 32.1535 98.7177 31.5435 100.163 31.1185L99.5985 29.1997C97.9528 29.6838 96.4883 30.3919 95.2175 31.3326L96.4075 32.9401ZM100.16 31.1192C101.647 30.6861 103.26 30.4016 105.002 30.2699L104.851 28.2756C102.986 28.4166 101.235 28.723 99.601 29.199L100.16 31.1192ZM105.003 30.2697C106.973 30.117 108.579 29.9321 109.807 29.7115L109.454 27.743C108.319 27.9467 106.788 28.1254 104.849 28.2757L105.003 30.2697ZM109.817 29.7097C111.058 29.4742 112.103 29.1295 112.818 28.5982L111.625 26.9927C111.28 27.2493 110.598 27.5258 109.444 27.7448L109.817 29.7097ZM112.832 28.5872C113.607 27.9898 114.017 27.1602 114.017 26.1818H112.017C112.017 26.5368 111.897 26.7829 111.611 27.0037L112.832 28.5872ZM114.017 26.1818V26.0909H112.017V26.1818H114.017ZM114.017 26.0909C114.017 24.8818 113.53 23.866 112.543 23.1791L111.401 24.8209C111.807 25.1037 112.017 25.4819 112.017 26.0909H114.017ZM112.543 23.1791C111.636 22.5484 110.527 22.2727 109.29 22.2727V24.2727C110.235 24.2727 110.913 24.4819 111.401 24.8209L112.543 23.1791ZM109.29 22.2727C107.948 22.2727 106.753 22.5707 105.784 23.249L106.931 24.8874C107.478 24.5051 108.238 24.2727 109.29 24.2727V22.2727ZM105.788 23.2466C104.771 23.9524 104.209 25.0238 104.027 26.3151L106.007 26.594C106.128 25.7338 106.46 25.2143 106.928 24.8898L105.788 23.2466ZM105.017 25.4545H93.4716V27.4545H105.017V25.4545ZM94.469 26.5258C94.608 24.5801 95.2238 22.7924 96.3253 21.1472L94.6634 20.0346C93.3708 21.9652 92.6382 24.0865 92.4741 26.3833L94.469 26.5258ZM96.3242 21.1488C97.4177 19.5223 99.0286 18.1924 101.211 17.1798L100.369 15.3656C97.9146 16.5046 95.9952 18.0535 94.6644 20.033L96.3242 21.1488ZM101.216 17.1775C103.362 16.1674 106.1 15.6364 109.472 15.6364V13.6364C105.904 13.6364 102.854 14.1962 100.364 15.3679L101.216 17.1775ZM109.472 15.6364C111.894 15.6364 114.038 15.9228 115.914 16.4812L116.484 14.5643C114.39 13.9408 112.049 13.6364 109.472 13.6364V15.6364ZM115.92 16.4831C117.81 17.0314 119.386 17.7936 120.667 18.7545L121.867 17.1545C120.36 16.0246 118.557 15.1656 116.477 14.5623L115.92 16.4831ZM120.673 18.7587C121.957 19.7082 122.912 20.8074 123.562 22.0535L125.335 21.1283C124.531 19.5865 123.365 18.2615 121.861 17.1504L120.673 18.7587ZM123.568 22.065C124.23 23.2928 124.562 24.6291 124.562 26.0909H126.562C126.562 24.3103 126.153 22.6465 125.329 21.1168L123.568 22.065ZM124.562 26.0909V50H126.562V26.0909H124.562ZM125.562 49H113.835V51H125.562V49ZM114.835 50V45.0909H112.835V50H114.835ZM113.835 44.0909H113.562V46.0909H113.835V44.0909ZM112.681 44.6193C112.038 45.8214 111.271 46.7635 110.391 47.4703L111.643 49.0297C112.763 48.1304 113.693 46.9665 114.444 45.5626L112.681 44.6193ZM110.385 47.475C109.51 48.1887 108.504 48.7105 107.356 49.0385L107.905 50.9615C109.303 50.5622 110.555 49.9174 111.649 49.025L110.385 47.475ZM107.353 49.0394C106.198 49.3732 104.907 49.5455 103.472 49.5455V51.5455C105.066 51.5455 106.548 51.3541 107.908 50.9606L107.353 49.0394ZM107.562 43.6364C108.659 43.6364 109.7 43.4089 110.672 42.9495L109.817 41.1414C109.122 41.4699 108.375 41.6364 107.562 41.6364V43.6364ZM110.665 42.9525C111.667 42.4876 112.493 41.809 113.126 40.9221L111.499 39.7597C111.072 40.3577 110.519 40.8154 109.823 41.1384L110.665 42.9525ZM113.126 40.9221C113.797 39.9837 114.108 38.8704 114.108 37.6364H112.108C112.108 38.5235 111.889 39.2132 111.499 39.7597L113.126 40.9221ZM114.108 37.6364V34.7273H112.108V37.6364H114.108ZM112.729 33.8017C112.423 33.9272 112.091 34.0472 111.735 34.1612L112.345 36.0661C112.746 35.9377 113.127 35.8001 113.487 35.6528L112.729 33.8017ZM111.724 34.165C111.387 34.277 111.018 34.3837 110.615 34.4844L111.1 36.4247C111.546 36.3133 111.965 36.1927 112.356 36.0623L111.724 34.165ZM110.607 34.4865C110.22 34.5868 109.802 34.6808 109.35 34.7682L109.73 36.7318C110.217 36.6374 110.677 36.5345 111.109 36.4225L110.607 34.4865ZM109.344 34.7694C108.906 34.857 108.444 34.9377 107.958 35.0113L108.258 36.9887C108.772 36.9108 109.265 36.8248 109.736 36.7306L109.344 34.7694ZM107.954 35.012C106.908 35.1754 105.988 35.4537 105.232 35.8779L106.211 37.6221C106.697 37.3494 107.369 37.1276 108.262 36.988L107.954 35.012ZM105.24 35.8738C104.508 36.2761 103.912 36.8064 103.503 37.4817L105.213 38.5183C105.41 38.1936 105.723 37.8906 106.204 37.6262L105.24 35.8738ZM103.498 37.4895C103.112 38.1404 102.926 38.8646 102.926 39.6364H104.926C104.926 39.196 105.029 38.8293 105.218 38.5105L103.498 37.4895ZM102.926 39.6364C102.926 40.8713 103.378 41.93 104.346 42.6615L105.552 41.0658C105.156 40.7669 104.926 40.3408 104.926 39.6364H102.926ZM104.346 42.6615C105.24 43.3367 106.338 43.6364 107.562 43.6364V41.6364C106.666 41.6364 106.022 41.4208 105.552 41.0658L104.346 42.6615ZM144.102 3.45454H145.102V2.45454H144.102V3.45454ZM144.102 50V51H145.102V50H144.102ZM131.557 50H130.557V51H131.557V50ZM131.557 3.45454V2.45454H130.557V3.45454H131.557ZM143.102 3.45454V50H145.102V3.45454H143.102ZM144.102 49H131.557V51H144.102V49ZM132.557 50V3.45454H130.557V50H132.557ZM131.557 4.45454H144.102V2.45454H131.557V4.45454ZM150.494 50H149.494V51H150.494V50ZM150.494 15.0909V14.0909H149.494V15.0909H150.494ZM163.04 15.0909H164.04V14.0909H163.04V15.0909ZM163.04 50V51H164.04V50H163.04ZM152.403 9.77273L151.724 10.5068V10.5068L152.403 9.77273ZM152.403 1.68182L151.724 0.947716V0.947717L152.403 1.68182ZM161.131 1.68182L160.447 2.41166L160.452 2.41592L161.131 1.68182ZM161.131 9.77273L160.452 9.03861L160.447 9.0429L161.131 9.77273ZM151.494 50V15.0909H149.494V50H151.494ZM150.494 16.0909H163.04V14.0909H150.494V16.0909ZM162.04 15.0909V50H164.04V15.0909H162.04ZM163.04 49H150.494V51H163.04V49ZM156.767 10.4545C155.314 10.4545 154.104 9.98372 153.082 9.03863L151.724 10.5068C153.127 11.8042 154.826 12.4545 156.767 12.4545V10.4545ZM153.082 9.03863C152.064 8.09648 151.585 7.0096 151.585 5.72727H149.585C149.585 7.59646 150.319 9.20655 151.724 10.5068L153.082 9.03863ZM151.585 5.72727C151.585 4.44495 152.064 3.35807 153.082 2.41592L151.724 0.947717C150.319 2.24799 149.585 3.85808 149.585 5.72727H151.585ZM153.082 2.41592C154.104 1.47083 155.314 1 156.767 1V-1C154.826 -1 153.127 -0.349615 151.724 0.947716L153.082 2.41592ZM156.767 1C158.238 1 159.444 1.47225 160.447 2.41164L161.814 0.95199C160.423 -0.35104 158.721 -1 156.767 -1V1ZM160.452 2.41592C161.47 3.35807 161.949 4.44495 161.949 5.72727H163.949C163.949 3.85808 163.215 2.24799 161.81 0.947717L160.452 2.41592ZM161.949 5.72727C161.949 7.0096 161.47 8.09648 160.452 9.03863L161.81 10.5068C163.215 9.20655 163.949 7.59646 163.949 5.72727H161.949ZM160.447 9.0429C159.444 9.98229 158.238 10.4545 156.767 10.4545V12.4545C158.721 12.4545 160.423 11.8056 161.814 10.5026L160.447 9.0429ZM190.25 15.0909H191.25V14.0909H190.25V15.0909ZM190.25 24.1818V25.1818H191.25V24.1818H190.25ZM167.25 24.1818H166.25V25.1818H167.25V24.1818ZM167.25 15.0909V14.0909H166.25V15.0909H167.25ZM171.705 6.72727V5.72727H170.705V6.72727H171.705ZM184.25 6.72727H185.25V5.72727H184.25V6.72727ZM184.5 40L183.606 40.4472L183.61 40.4557L183.614 40.464L184.5 40ZM185.273 40.7273L184.841 41.6294L184.857 41.6372L184.874 41.6443L185.273 40.7273ZM187.932 40.8182L187.758 39.8334L187.753 39.8343L187.932 40.8182ZM189.068 40.5909L190.048 40.389L189.837 39.3679L188.826 39.6208L189.068 40.5909ZM190.886 49.4091L191.171 50.3676L192.051 50.1061L191.866 49.2072L190.886 49.4091ZM188.477 50.0227L188.251 49.0486L188.248 49.0493L188.477 50.0227ZM184.795 50.5L184.848 51.4986L184.849 51.4986L184.795 50.5ZM177.545 49.6136L177.184 50.5461L177.19 50.5485L177.545 49.6136ZM173.136 46.0455L172.282 46.5646L173.136 46.0455ZM171.705 39.9545L172.705 39.967V39.9545H171.705ZM189.25 15.0909V24.1818H191.25V15.0909H189.25ZM190.25 23.1818H167.25V25.1818H190.25V23.1818ZM168.25 24.1818V15.0909H166.25V24.1818H168.25ZM167.25 16.0909H190.25V14.0909H167.25V16.0909ZM171.705 7.72727H184.25V5.72727H171.705V7.72727ZM183.25 6.72727V38.7727H185.25V6.72727H183.25ZM183.25 38.7727C183.25 39.3678 183.352 39.9397 183.606 40.4472L185.394 39.5528C185.315 39.3937 185.25 39.1474 185.25 38.7727H183.25ZM183.614 40.464C183.889 40.9882 184.314 41.377 184.841 41.6294L185.704 39.8251C185.535 39.7442 185.445 39.6481 185.386 39.536L183.614 40.464ZM184.874 41.6443C185.391 41.8689 185.986 41.9545 186.614 41.9545V39.9545C186.15 39.9545 185.852 39.8886 185.671 39.8102L184.874 41.6443ZM186.614 41.9545C187.069 41.9545 187.57 41.9003 188.111 41.8021L187.753 39.8343C187.293 39.9179 186.916 39.9545 186.614 39.9545V41.9545ZM188.106 41.803C188.625 41.7114 189.032 41.6307 189.311 41.5611L188.826 39.6208C188.619 39.6724 188.269 39.7432 187.758 39.8334L188.106 41.803ZM188.089 40.7928L189.907 49.611L191.866 49.2072L190.048 40.389L188.089 40.7928ZM190.601 48.4506C190.07 48.6085 189.29 48.8076 188.251 49.0486L188.703 50.9969C189.755 50.753 190.581 50.543 191.171 50.3676L190.601 48.4506ZM188.248 49.0493C187.292 49.2744 186.126 49.4278 184.742 49.5014L184.849 51.4986C186.313 51.4207 187.602 51.2559 188.706 50.9961L188.248 49.0493ZM184.743 49.5014C181.954 49.6482 179.686 49.3569 177.901 48.6788L177.19 50.5485C179.314 51.3552 181.88 51.6548 184.848 51.4986L184.743 49.5014ZM177.907 48.6812C176.135 47.9944 174.849 46.9393 173.991 45.5263L172.282 46.5646C173.393 48.3941 175.047 49.7177 177.184 50.546L177.907 48.6812ZM173.991 45.5263C173.128 44.105 172.676 42.2719 172.704 39.967L170.705 39.9421C170.673 42.516 171.175 44.7435 172.282 46.5646L173.991 45.5263ZM172.705 39.9545V6.72727H170.705V39.9545H172.705ZM198.892 62.75L199.064 61.7648L199.053 61.763L198.892 62.75ZM195.46 61.8636L194.504 61.5709L194.231 62.4623L195.101 62.797L195.46 61.8636ZM198.188 52.9545L198.52 52.0116L197.537 51.6644L197.231 52.6618L198.188 52.9545ZM201.006 53.6591L200.882 54.6514L200.884 54.6516L201.006 53.6591ZM203.21 53.4773L202.867 52.5381L202.859 52.5409L203.21 53.4773ZM204.551 52.1818L205.47 52.5757L204.551 52.1818ZM204.824 51.5455L205.743 51.9394L205.893 51.5883L205.772 51.2264L204.824 51.5455ZM192.551 15.0909V14.0909H191.159L191.603 15.41L192.551 15.0909ZM205.642 15.0909L206.616 14.8639L206.436 14.0909H205.642V15.0909ZM211.278 39.2727L210.305 39.4997L210.485 40.2727H211.278V39.2727ZM211.642 39.2727V40.2727H212.433L212.615 39.5032L211.642 39.2727ZM217.369 15.0909V14.0909H216.578L216.396 14.8604L217.369 15.0909ZM230.551 15.0909L231.499 15.4099L231.943 14.0909H230.551V15.0909ZM217.824 52.9091L216.876 52.5901L216.874 52.5951L217.824 52.9091ZM215.051 58.0909L214.267 57.47L214.261 57.4786L215.051 58.0909ZM210.324 61.75L209.908 60.8406L210.324 61.75ZM203.006 62.0909C201.619 62.0909 200.305 61.9814 199.064 61.7649L198.72 63.7351C200.085 63.9731 201.514 64.0909 203.006 64.0909V62.0909ZM199.053 61.763C197.801 61.5593 196.726 61.2792 195.819 60.9303L195.101 62.797C196.164 63.2057 197.377 63.5165 198.731 63.737L199.053 61.763ZM196.416 62.1563L199.144 53.2473L197.231 52.6618L194.504 61.5709L196.416 62.1563ZM197.855 53.8975C198.935 54.2788 199.946 54.5344 200.882 54.6514L201.13 52.6668C200.369 52.5717 199.501 52.3576 198.52 52.0116L197.855 53.8975ZM200.884 54.6516C201.855 54.7709 202.762 54.7135 203.561 54.4136L202.859 52.5409C202.447 52.6956 201.884 52.7594 201.128 52.6665L200.884 54.6516ZM203.554 54.4164C204.447 54.0896 205.095 53.4521 205.47 52.5757L203.632 51.7879C203.462 52.1843 203.216 52.4104 202.867 52.5381L203.554 54.4164ZM205.47 52.5757L205.743 51.9394L203.905 51.1515L203.632 51.7879L205.47 52.5757ZM205.772 51.2264L193.499 14.7718L191.603 15.41L203.876 51.8645L205.772 51.2264ZM192.551 16.0909H205.642V14.0909H192.551V16.0909ZM204.668 15.3179L210.305 39.4997L212.252 39.0457L206.616 14.8639L204.668 15.3179ZM211.278 40.2727H211.642V38.2727H211.278V40.2727ZM212.615 39.5032L218.342 15.3214L216.396 14.8604L210.669 39.0423L212.615 39.5032ZM217.369 16.0909H230.551V14.0909H217.369V16.0909ZM229.603 14.7719L216.876 52.5901L218.772 53.2281L231.499 15.4099L229.603 14.7719ZM216.874 52.5951C216.273 54.4124 215.404 56.035 214.267 57.47L215.835 58.7118C217.123 57.0862 218.102 55.2542 218.773 53.2231L216.874 52.5951ZM214.261 57.4786C213.172 58.8838 211.73 60.0071 209.908 60.8406L210.74 62.6594C212.826 61.705 214.536 60.3889 215.842 58.7032L214.261 57.4786ZM209.908 60.8406C208.122 61.6574 205.835 62.0909 203.006 62.0909V64.0909C206.025 64.0909 208.617 63.6305 210.74 62.6594L209.908 60.8406ZM253.96 48.3864L253.47 49.2582L253.474 49.2603L253.96 48.3864ZM247.756 42.0682L246.872 42.537L246.873 42.539L247.756 42.0682ZM247.756 23.2273L248.638 23.6981L248.639 23.6961L247.756 23.2273ZM253.96 16.9091L254.446 17.783L254.45 17.7809L253.96 16.9091ZM273.415 16.9091L272.925 17.7809L272.929 17.783L273.415 16.9091ZM279.619 23.2273L278.736 23.6961L278.737 23.6981L279.619 23.2273ZM279.619 42.0682L280.502 42.539L280.503 42.537L279.619 42.0682ZM273.415 48.3864L273.901 49.2603L273.905 49.2582L273.415 48.3864ZM266.528 40.2955L267.206 41.0308L266.528 40.2955ZM268.324 37.25L269.276 37.5564L268.324 37.25ZM268.324 27.8409L267.372 28.1473L267.373 28.1505L268.324 27.8409ZM266.528 24.7955L267.206 24.0601L266.528 24.7955ZM259.051 27.8409L260.002 28.1505L260.003 28.1473L259.051 27.8409ZM259.051 37.25L260.003 36.9436L259.051 37.25ZM263.688 49.6364C260.031 49.6364 256.964 48.9129 254.446 47.5124L253.474 49.2603C256.35 50.8598 259.768 51.6364 263.688 51.6364V49.6364ZM254.45 47.5145C251.917 46.0917 249.986 44.1238 248.638 41.5973L246.873 42.539C248.404 45.4065 250.609 47.6507 253.47 49.2582L254.45 47.5145ZM248.639 41.5994C247.288 39.0537 246.597 36.0757 246.597 32.6364H244.597C244.597 36.3486 245.345 39.6584 246.872 42.537L248.639 41.5994ZM246.597 32.6364C246.597 29.1969 247.288 26.2274 248.638 23.6981L246.873 22.7564C245.345 25.6211 244.597 28.9243 244.597 32.6364H246.597ZM248.639 23.6961C249.987 21.1554 251.917 19.1897 254.446 17.783L253.474 16.0352C250.609 17.6285 248.403 19.8749 246.872 22.7585L248.639 23.6961ZM254.45 17.7809C256.967 16.3667 260.033 15.6364 263.688 15.6364V13.6364C259.766 13.6364 256.347 14.4212 253.47 16.0373L254.45 17.7809ZM263.688 15.6364C267.342 15.6364 270.408 16.3667 272.925 17.7809L273.905 16.0373C271.028 14.4212 267.609 13.6364 263.688 13.6364V15.6364ZM272.929 17.783C275.458 19.1897 277.388 21.1554 278.736 23.6961L280.503 22.7585C278.972 19.8749 276.766 17.6285 273.901 16.0352L272.929 17.783ZM278.737 23.6981C280.087 26.2274 280.778 29.1969 280.778 32.6364H282.778C282.778 28.9243 282.03 25.6211 280.502 22.7564L278.737 23.6981ZM280.778 32.6364C280.778 36.0757 280.087 39.0537 278.736 41.5994L280.503 42.537C282.03 39.6584 282.778 36.3486 282.778 32.6364H280.778ZM278.737 41.5973C277.389 44.1238 275.458 46.0917 272.925 47.5145L273.905 49.2582C276.766 47.6507 278.971 45.4065 280.502 42.539L278.737 41.5973ZM272.929 47.5124C270.411 48.9129 267.344 49.6364 263.688 49.6364V51.6364C267.607 51.6364 271.025 50.8598 273.901 49.2603L272.929 47.5124ZM263.778 42.3636C265.088 42.3636 266.247 41.9149 267.206 41.0308L265.851 39.5601C265.265 40.1003 264.591 40.3636 263.778 40.3636V42.3636ZM267.206 41.0308C268.14 40.1704 268.815 38.9882 269.276 37.5564L267.372 36.9436C266.984 38.1481 266.462 38.9963 265.851 39.5601L267.206 41.0308ZM269.276 37.5564C269.74 36.1137 269.96 34.437 269.96 32.5455H267.96C267.96 34.2902 267.756 35.7499 267.372 36.9436L269.276 37.5564ZM269.96 32.5455C269.96 30.6402 269.74 28.9616 269.275 27.5313L267.373 28.1505C267.756 29.3262 267.96 30.7841 267.96 32.5455H269.96ZM269.276 27.5345C268.815 26.1027 268.14 24.9206 267.206 24.0601L265.851 25.5308C266.462 26.0946 266.984 26.9428 267.372 28.1473L269.276 27.5345ZM267.206 24.0601C266.247 23.1761 265.088 22.7273 263.778 22.7273V24.7273C264.591 24.7273 265.265 24.9906 265.851 25.5308L267.206 24.0601ZM263.778 22.7273C262.425 22.7273 261.223 23.1652 260.229 24.0473L261.556 25.5436C262.167 25.0015 262.89 24.7273 263.778 24.7273V22.7273ZM260.229 24.0473C259.258 24.9079 258.563 26.0944 258.099 27.5345L260.003 28.1473C260.388 26.9511 260.92 26.1072 261.556 25.5436L260.229 24.0473ZM258.1 27.5313C257.635 28.9616 257.415 30.6402 257.415 32.5455H259.415C259.415 30.7841 259.619 29.3262 260.002 28.1505L258.1 27.5313ZM257.415 32.5455C257.415 34.437 257.635 36.1137 258.099 37.5564L260.003 36.9436C259.619 35.7499 259.415 34.2902 259.415 32.5455H257.415ZM258.099 37.5564C258.563 38.9965 259.258 40.183 260.229 41.0436L261.556 39.5473C260.92 38.9837 260.388 38.1398 260.003 36.9436L258.099 37.5564ZM260.229 41.0436C261.223 41.9257 262.425 42.3636 263.778 42.3636V40.3636C262.89 40.3636 262.167 40.0894 261.556 39.5473L260.229 41.0436ZM309.506 34.7273H308.506L308.506 34.7404L309.506 34.7273ZM309.506 15.0909V14.0909H308.506V15.0909H309.506ZM322.051 15.0909H323.051V14.0909H322.051V15.0909ZM322.051 50V51H323.051V50H322.051ZM310.142 50H309.142V51H310.142V50ZM310.142 43.3636H311.142V42.3636H310.142V43.3636ZM309.778 43.3636V42.3636H309.062L308.832 43.0416L309.778 43.3636ZM305.801 48.5909L306.35 49.4271L306.354 49.424L305.801 48.5909ZM292.642 48.7727L292.117 49.6239L292.12 49.6258L292.642 48.7727ZM288.392 44.1364L287.5 44.5891L287.503 44.5945L288.392 44.1364ZM286.869 37.3636H285.869L285.869 37.3696L286.869 37.3636ZM286.869 15.0909V14.0909H285.869V15.0909H286.869ZM299.415 15.0909H300.415V14.0909H299.415V15.0909ZM299.415 34.7273H298.415L298.415 34.736L299.415 34.7273ZM300.733 38.7955L299.981 39.4548L299.987 39.4612L300.733 38.7955ZM307.119 39.6136L307.621 40.4787L307.626 40.4756L307.119 39.6136ZM308.892 37.7045L308.001 37.2509L307.998 37.2573L308.892 37.7045ZM310.506 34.7273V15.0909H308.506V34.7273H310.506ZM309.506 16.0909H322.051V14.0909H309.506V16.0909ZM321.051 15.0909V50H323.051V15.0909H321.051ZM322.051 49H310.142V51H322.051V49ZM311.142 50V43.3636H309.142V50H311.142ZM310.142 42.3636H309.778V44.3636H310.142V42.3636ZM308.832 43.0416C308.143 45.0676 306.951 46.627 305.248 47.7578L306.354 49.424C308.439 48.0397 309.899 46.1142 310.725 43.6857L308.832 43.0416ZM305.253 47.7548C303.545 48.8749 301.492 49.4545 299.051 49.4545V51.4545C301.822 51.4545 304.269 50.7918 306.35 49.4271L305.253 47.7548ZM299.051 49.4545C296.77 49.4545 294.82 48.9323 293.164 47.9196L292.12 49.6258C294.131 50.8556 296.453 51.4545 299.051 51.4545V49.4545ZM293.167 47.9216C291.51 46.8995 290.216 45.4926 289.281 43.6782L287.503 44.5945C288.598 46.7195 290.138 48.4035 292.117 49.6239L293.167 47.9216ZM289.284 43.6837C288.364 41.8722 287.884 39.7715 287.869 37.3577L285.869 37.3696C285.885 40.0466 286.42 42.4612 287.5 44.5891L289.284 43.6837ZM287.869 37.3636V15.0909H285.869V37.3636H287.869ZM286.869 16.0909H299.415V14.0909H286.869V16.0909ZM298.415 15.0909V34.7273H300.415V15.0909H298.415ZM298.415 34.736C298.431 36.6254 298.915 38.239 299.981 39.4548L301.485 38.1361C300.824 37.3822 300.428 36.2837 300.415 34.7185L298.415 34.736ZM299.987 39.4612C301.092 40.6999 302.614 41.2727 304.415 41.2727V39.2727C303.064 39.2727 302.131 38.8607 301.479 38.1297L299.987 39.4612ZM304.415 41.2727C305.602 41.2727 306.684 41.0222 307.621 40.4787L306.618 38.7486C306.04 39.0839 305.318 39.2727 304.415 39.2727V41.2727ZM307.626 40.4756C308.569 39.921 309.293 39.139 309.786 38.1518L307.998 37.2573C307.673 37.9065 307.215 38.3972 306.612 38.7517L307.626 40.4756ZM309.783 38.1582C310.296 37.1507 310.522 35.9908 310.506 34.7141L308.506 34.7404C308.519 35.7668 308.336 36.5917 308.001 37.2509L309.783 38.1582ZM328.432 50H327.432V51H328.432V50ZM328.432 15.0909V14.0909H327.432V15.0909H328.432ZM340.614 15.0909H341.614V14.0909H340.614V15.0909ZM340.614 21.7273H339.614V22.7273H340.614V21.7273ZM340.977 21.7273V22.7273H341.751L341.945 21.9782L340.977 21.7273ZM344 16.3409L343.368 15.5658L343.364 15.5692L344 16.3409ZM350.5 14.7727L350.331 15.7584L350.347 15.761L350.362 15.7632L350.5 14.7727ZM352.068 15.1136H353.068V14.3718L352.358 14.1566L352.068 15.1136ZM352.068 25.8182L351.745 26.7645L353.068 27.2163V25.8182H352.068ZM349.773 25.3409L349.889 24.3476L349.773 25.3409ZM344.114 26.0227L344.604 26.8943L344.608 26.8918L344.114 26.0227ZM341.818 28.3409L342.687 28.8356L342.69 28.8299L341.818 28.3409ZM340.977 50V51H341.977V50H340.977ZM329.432 50V15.0909H327.432V50H329.432ZM328.432 16.0909H340.614V14.0909H328.432V16.0909ZM339.614 15.0909V21.7273H341.614V15.0909H339.614ZM340.614 22.7273H340.977V20.7273H340.614V22.7273ZM341.945 21.9782C342.55 19.6451 343.476 18.069 344.636 17.1126L343.364 15.5692C341.767 16.8855 340.677 18.9003 340.009 21.4763L341.945 21.9782ZM344.632 17.116C345.84 16.1307 347.244 15.6364 348.886 15.6364V13.6364C346.802 13.6364 344.947 14.2784 343.368 15.5658L344.632 17.116ZM348.886 15.6364C349.376 15.6364 349.857 15.6771 350.331 15.7584L350.669 13.7871C350.082 13.6865 349.488 13.6364 348.886 13.6364V15.6364ZM350.362 15.7632C350.859 15.8322 351.331 15.935 351.778 16.0707L352.358 14.1566C351.806 13.9892 351.232 13.8648 350.638 13.7822L350.362 15.7632ZM351.068 15.1136V25.8182H353.068V15.1136H351.068ZM352.391 24.8718C351.682 24.6298 350.843 24.459 349.889 24.3476L349.657 26.3342C350.521 26.435 351.212 26.5824 351.745 26.7645L352.391 24.8718ZM349.889 24.3476C348.955 24.2387 348.134 24.1818 347.432 24.1818V26.1818C348.033 26.1818 348.772 26.231 349.657 26.3342L349.889 24.3476ZM347.432 24.1818C346.046 24.1818 344.767 24.5002 343.619 25.1537L344.608 26.8918C345.43 26.424 346.363 26.1818 347.432 26.1818V24.1818ZM343.623 25.1511C342.489 25.7895 341.593 26.6968 340.946 27.8519L342.69 28.8299C343.164 27.985 343.799 27.3469 344.604 26.8943L343.623 25.1511ZM340.949 27.8462C340.289 29.0065 339.977 30.3422 339.977 31.8182H341.977C341.977 30.6275 342.227 29.645 342.687 28.8356L340.949 27.8462ZM339.977 31.8182V50H341.977V31.8182H339.977ZM340.977 49H328.432V51H340.977V49ZM368.75 50H367.75V51H368.75V50ZM368.75 3.45454V2.45454H367.75V3.45454H368.75ZM381.295 3.45454H382.295V2.45454H381.295V3.45454ZM381.295 21.1818H380.295V22.1818H381.295V21.1818ZM381.477 21.1818V22.1818H382.164L382.411 21.5408L381.477 21.1818ZM383.477 17.9318L384.223 18.5976L384.228 18.5919L383.477 17.9318ZM386.75 15.5455L387.163 16.4562L387.172 16.4522L386.75 15.5455ZM397.864 16.4773L397.355 17.3381L397.357 17.3397L397.864 16.4773ZM402.955 22.2727L402.058 22.7158L402.06 22.7199L402.955 22.2727ZM403.045 42.5682L402.142 42.1396L402.14 42.1439L403.045 42.5682ZM398.045 48.5L397.517 47.6513L397.514 47.653L398.045 48.5ZM386.818 49.6591L386.424 50.5782L386.431 50.5811L386.437 50.5838L386.818 49.6591ZM383.545 47.4545L382.821 48.1439L382.827 48.1499L382.833 48.1558L383.545 47.4545ZM381.477 44.2727L382.402 43.8932L382.148 43.2727H381.477V44.2727ZM381.205 44.2727V43.2727H380.205V44.2727H381.205ZM381.205 50V51H382.205V50H381.205ZM381.682 36.9545L380.739 37.288L380.742 37.2949L380.744 37.3019L381.682 36.9545ZM383.591 39.8182L382.951 40.5864L382.958 40.5928L382.966 40.5991L383.591 39.8182ZM389.5 39.8409L390.13 40.6175L390.132 40.6161L389.5 39.8409ZM391.364 37L390.421 36.6666L390.419 36.6733L391.364 37ZM391.364 28.1136L390.417 28.4368L390.42 28.4438L390.422 28.4507L391.364 28.1136ZM389.5 25.2727L388.861 26.0421L388.869 26.0487L388.877 26.055L389.5 25.2727ZM383.591 25.2727L384.214 26.055L384.216 26.0536L383.591 25.2727ZM381.682 28.1136L380.743 27.77L380.74 27.7766L381.682 28.1136ZM369.75 50V3.45454H367.75V50H369.75ZM368.75 4.45454H381.295V2.45454H368.75V4.45454ZM380.295 3.45454V21.1818H382.295V3.45454H380.295ZM381.295 22.1818H381.477V20.1818H381.295V22.1818ZM382.411 21.5408C382.82 20.4765 383.422 19.4962 384.223 18.5976L382.731 17.266C381.775 18.3371 381.044 19.5235 380.544 20.8228L382.411 21.5408ZM384.228 18.5919C385.007 17.7063 385.979 16.9929 387.163 16.4562L386.337 14.6347C384.915 15.2798 383.705 16.1573 382.726 17.2717L384.228 18.5919ZM387.172 16.4522C388.319 15.9187 389.685 15.6364 391.295 15.6364V13.6364C389.451 13.6364 387.787 13.9601 386.328 14.6387L387.172 16.4522ZM391.295 15.6364C393.411 15.6364 395.426 16.1975 397.355 17.3381L398.373 15.6165C396.15 14.3025 393.786 13.6364 391.295 13.6364V15.6364ZM397.357 17.3397C399.247 18.4489 400.823 20.2167 402.058 22.7158L403.851 21.8296C402.48 19.056 400.662 16.9601 398.37 15.6149L397.357 17.3397ZM402.06 22.7199C403.286 25.1709 403.932 28.4265 403.932 32.5455H405.932C405.932 28.2402 405.26 24.6473 403.849 21.8255L402.06 22.7199ZM403.932 32.5455C403.932 36.4797 403.317 39.6623 402.142 42.1397L403.949 42.9967C405.289 40.171 405.932 36.6718 405.932 32.5455H403.932ZM402.14 42.1439C400.964 44.654 399.415 46.4683 397.517 47.6513L398.574 49.3487C400.858 47.9256 402.642 45.7854 403.951 42.9925L402.14 42.1439ZM397.514 47.653C395.6 48.8546 393.504 49.4545 391.205 49.4545V51.4545C393.875 51.4545 396.34 50.7514 398.577 49.347L397.514 47.653ZM391.205 49.4545C389.676 49.4545 388.347 49.2071 387.199 48.7344L386.437 50.5838C387.865 51.1717 389.46 51.4545 391.205 51.4545V49.4545ZM387.212 48.7399C386.051 48.2422 385.07 47.5787 384.258 46.7533L382.833 48.1558C383.839 49.1789 385.04 49.9851 386.424 50.5782L387.212 48.7399ZM384.27 46.7652C383.46 45.9143 382.839 44.9584 382.402 43.8932L380.552 44.6523C381.085 45.9507 381.843 47.116 382.821 48.1439L384.27 46.7652ZM381.477 43.2727H381.205V45.2727H381.477V43.2727ZM380.205 44.2727V50H382.205V44.2727H380.205ZM381.205 49H368.75V51H381.205V49ZM380.023 32.5455C380.023 34.325 380.253 35.9127 380.739 37.288L382.625 36.6211C382.232 35.5116 382.023 34.1599 382.023 32.5455H380.023ZM380.744 37.3019C381.246 38.6558 381.971 39.7698 382.951 40.5864L384.231 39.05C383.575 38.503 383.027 37.7079 382.62 36.6072L380.744 37.3019ZM382.966 40.5991C383.991 41.4191 385.209 41.8182 386.568 41.8182V39.8182C385.625 39.8182 384.857 39.5506 384.216 39.0373L382.966 40.5991ZM386.568 41.8182C387.921 41.8182 389.128 41.4301 390.13 40.6175L388.87 39.0643C388.265 39.5548 387.518 39.8182 386.568 39.8182V41.8182ZM390.132 40.6161C391.124 39.8076 391.838 38.6893 392.309 37.3267L390.419 36.6733C390.041 37.7653 389.512 38.5409 388.868 39.0657L390.132 40.6161ZM392.306 37.3334C392.793 35.9565 393.023 34.353 393.023 32.5455H391.023C391.023 34.1925 390.813 35.5587 390.421 36.6666L392.306 37.3334ZM393.023 32.5455C393.023 30.7384 392.794 29.1408 392.305 27.7766L390.422 28.4507C390.813 29.5411 391.023 30.8979 391.023 32.5455H393.023ZM392.31 27.7905C391.84 26.4132 391.124 25.288 390.123 24.4904L388.877 26.055C389.512 26.5605 390.039 27.3292 390.417 28.4368L392.31 27.7905ZM390.139 24.5033C389.137 23.672 387.927 23.2727 386.568 23.2727V25.2727C387.512 25.2727 388.257 25.5401 388.861 26.0421L390.139 24.5033ZM386.568 23.2727C385.209 23.2727 383.991 23.6718 382.966 24.4919L384.216 26.0536C384.857 25.5403 385.625 25.2727 386.568 25.2727V23.2727ZM382.968 24.4904C381.973 25.283 381.244 26.4003 380.743 27.7701L382.621 28.4572C383.029 27.3421 383.573 26.5654 384.214 26.055L382.968 24.4904ZM380.74 27.7766C380.252 29.1408 380.023 30.7384 380.023 32.5455H382.023C382.023 30.8979 382.233 29.5411 382.623 28.4507L380.74 27.7766ZM417.273 48.5L416.8 49.3811L416.806 49.3843L417.273 48.5ZM411.068 42.3182L410.186 42.789L410.189 42.7949L411.068 42.3182ZM411.091 23.1818L411.971 23.6565L411.091 23.1818ZM417.25 16.8864L417.742 17.7567V17.7567L417.25 16.8864ZM433.795 15.8636L434.153 14.9298L433.795 15.8636ZM439.273 19.4318L438.555 20.1284L438.559 20.1319L439.273 19.4318ZM442.773 25.0682L441.835 25.4151L442.773 25.0682ZM444 35.4545V36.4545H445V35.4545H444ZM412.818 35.4545H411.818V36.4545H412.818V35.4545ZM412.818 28.5455V27.5455H411.818V28.5455H412.818ZM432.455 28.5455V29.5455H433.47L433.454 28.5303L432.455 28.5455ZM431.682 25.9091L430.835 26.4406L430.841 26.4503L430.847 26.4599L431.682 25.9091ZM429.705 24.1136L429.231 24.9946L429.241 24.9998L429.251 25.0048L429.705 24.1136ZM424.114 24.1136L424.561 25.0081L424.567 25.0049L424.573 25.0016L424.114 24.1136ZM422.068 25.8864L421.241 25.324L421.234 25.3355L422.068 25.8864ZM421.273 28.5455L420.273 28.5156L420.273 28.5305V28.5455H421.273ZM421.977 39L421.095 39.4714L421.977 39ZM424 41.0682L423.505 41.9373L424 41.0682ZM429.545 41.4545L429.229 40.5058L429.223 40.5079L429.545 41.4545ZM431.409 40.4091L432.071 41.1589L432.077 41.1535L432.083 41.148L431.409 40.4091ZM432.545 38.7273V37.7273H431.851L431.608 38.3785L432.545 38.7273ZM444 38.7273L444.987 38.8877L445.176 37.7273H444V38.7273ZM441.205 45.0455L441.974 45.6837L441.977 45.6805L441.205 45.0455ZM435.364 49.1818L435.737 50.1095L435.74 50.1083L435.364 49.1818ZM426.909 49.6364C423.309 49.6364 420.264 48.9489 417.74 47.6157L416.806 49.3843C419.675 50.8996 423.055 51.6364 426.909 51.6364V49.6364ZM417.746 47.6189C415.236 46.272 413.309 44.3522 411.947 41.8414L410.189 42.7949C411.736 45.6478 413.946 47.8492 416.8 49.3811L417.746 47.6189ZM411.95 41.8473C410.604 39.3248 409.909 36.2668 409.909 32.6364H407.909C407.909 36.521 408.653 39.9176 410.186 42.789L411.95 41.8473ZM409.909 32.6364C409.909 29.1667 410.608 26.1838 411.971 23.6565L410.211 22.7071C408.665 25.5738 407.909 28.8939 407.909 32.6364H409.909ZM411.971 23.6565C413.337 21.1243 415.256 19.1634 417.742 17.7567L416.758 16.016C413.941 17.6093 411.754 19.8454 410.211 22.7071L411.971 23.6565ZM417.742 17.7567C420.218 16.3561 423.171 15.6364 426.636 15.6364V13.6364C422.89 13.6364 419.585 14.4166 416.758 16.016L417.742 17.7567ZM426.636 15.6364C429.169 15.6364 431.432 16.0292 433.438 16.7975L434.153 14.9298C431.887 14.0617 429.377 13.6364 426.636 13.6364V15.6364ZM433.438 16.7975C435.446 17.5664 437.147 18.6775 438.555 20.1284L439.99 18.7352C438.369 17.0649 436.418 15.7972 434.153 14.9298L433.438 16.7975ZM438.559 20.1319C439.967 21.568 441.061 23.3231 441.835 25.4151L443.711 24.7213C442.848 22.389 441.609 20.3866 439.987 18.7317L438.559 20.1319ZM441.835 25.4151C442.605 27.4985 443 29.8708 443 32.5455H445C445 29.6747 444.576 27.0621 443.711 24.7213L441.835 25.4151ZM443 32.5455V35.4545H445V32.5455H443ZM444 34.4545H412.818V36.4545H444V34.4545ZM413.818 35.4545V28.5455H411.818V35.4545H413.818ZM412.818 29.5455H432.455V27.5455H412.818V29.5455ZM433.454 28.5303C433.437 27.3598 433.132 26.291 432.516 25.3582L430.847 26.4599C431.232 27.0424 431.442 27.7312 431.455 28.5606L433.454 28.5303ZM432.529 25.3776C431.945 24.4476 431.149 23.7266 430.158 23.2225L429.251 25.0048C429.927 25.3491 430.449 25.8251 430.835 26.4406L432.529 25.3776ZM430.178 23.2326C429.197 22.7057 428.099 22.4545 426.909 22.4545V24.4545C427.81 24.4545 428.576 24.6427 429.231 24.9946L430.178 23.2326ZM426.909 22.4545C425.744 22.4545 424.653 22.7081 423.654 23.2256L424.573 25.0016C425.271 24.6404 426.044 24.4545 426.909 24.4545V22.4545ZM423.666 23.2192C422.671 23.7171 421.856 24.42 421.241 25.3241L422.895 26.4487C423.311 25.8376 423.86 25.3587 424.561 25.0081L423.666 23.2192ZM421.234 25.3355C420.619 26.266 420.308 27.3375 420.273 28.5156L422.272 28.5753C422.298 27.7231 422.517 27.0219 422.903 26.4372L421.234 25.3355ZM420.273 28.5455V36H422.273V28.5455H420.273ZM420.273 36C420.273 37.2648 420.539 38.4302 421.095 39.4714L422.859 38.5286C422.476 37.8122 422.273 36.9776 422.273 36H420.273ZM421.095 39.4714C421.655 40.5192 422.465 41.3454 423.505 41.9373L424.495 40.199C423.777 39.7909 423.239 39.2383 422.859 38.5286L421.095 39.4714ZM423.505 41.9373C424.566 42.5407 425.805 42.8182 427.182 42.8182V40.8182C426.073 40.8182 425.192 40.5957 424.495 40.199L423.505 41.9373ZM427.182 42.8182C428.139 42.8182 429.038 42.6837 429.868 42.4012L429.223 40.5079C428.629 40.7102 427.952 40.8182 427.182 40.8182V42.8182ZM429.862 42.4032C430.702 42.1233 431.444 41.712 432.071 41.1589L430.747 39.6593C430.344 40.0153 429.844 40.301 429.229 40.5059L429.862 42.4032ZM432.083 41.148C432.715 40.5714 433.185 39.8772 433.483 39.076L431.608 38.3785C431.421 38.8804 431.133 39.3074 430.735 39.6701L432.083 41.148ZM432.545 39.7273H444V37.7273H432.545V39.7273ZM443.013 38.5669C442.646 40.8278 441.783 42.7675 440.432 44.4104L441.977 45.6805C443.566 43.7477 444.567 41.4752 444.987 38.8877L443.013 38.5669ZM440.435 44.4072C439.084 46.0364 437.28 47.3241 434.987 48.2554L435.74 50.1083C438.296 49.0699 440.386 47.5999 441.974 45.6837L440.435 44.4072ZM434.99 48.2541C432.725 49.166 430.038 49.6364 426.909 49.6364V51.6364C430.234 51.6364 433.184 51.137 435.737 50.1095L434.99 48.2541ZM460.392 41.7273L459.392 41.7212L459.374 44.6504L461.18 42.3436L460.392 41.7273ZM460.483 26.8182V25.8182H459.489L459.483 26.8121L460.483 26.8182ZM462.119 26.8182V27.8182H462.631L462.93 27.403L462.119 26.8182ZM470.574 15.0909V14.0909H470.062L469.763 14.5061L470.574 15.0909ZM484.665 15.0909L485.455 15.704L486.707 14.0909H484.665V15.0909ZM470.483 33.3636V34.3636H470.973L471.273 33.9768L470.483 33.3636ZM466.938 33.3636V32.3636H466.45L466.15 32.7473L466.938 33.3636ZM449.119 50H448.119V51H449.119V50ZM449.119 3.45454V2.45454H448.119V3.45454H449.119ZM461.665 3.45454H462.665V2.45454H461.665V3.45454ZM461.665 50V51H462.665V50H461.665ZM470.665 50L469.799 50.501L470.088 51H470.665V50ZM462.665 36.1818L461.928 35.5054L461.431 36.0468L461.799 36.6829L462.665 36.1818ZM470.847 27.2727L471.695 26.7433L470.999 25.6282L470.11 26.5963L470.847 27.2727ZM485.028 50V51H486.831L485.877 49.4706L485.028 50ZM461.392 41.7334L461.483 26.8243L459.483 26.8121L459.392 41.7212L461.392 41.7334ZM460.483 27.8182H462.119V25.8182H460.483V27.8182ZM462.93 27.403L471.385 15.6757L469.763 14.5061L461.308 26.2334L462.93 27.403ZM470.574 16.0909H484.665V14.0909H470.574V16.0909ZM483.875 14.4778L469.693 32.7505L471.273 33.9768L485.455 15.704L483.875 14.4778ZM470.483 32.3636H466.938V34.3636H470.483V32.3636ZM466.15 32.7473L459.605 41.111L461.18 42.3436L467.725 33.9799L466.15 32.7473ZM450.119 50V3.45454H448.119V50H450.119ZM449.119 4.45454H461.665V2.45454H449.119V4.45454ZM460.665 3.45454V50H462.665V3.45454H460.665ZM461.665 49H449.119V51H461.665V49ZM471.53 49.499L463.53 35.6808L461.799 36.6829L469.799 50.501L471.53 49.499ZM463.401 36.8582L471.583 27.9491L470.11 26.5963L461.928 35.5054L463.401 36.8582ZM469.998 27.8021L484.18 50.5294L485.877 49.4706L471.695 26.7433L469.998 27.8021ZM485.028 49H470.665V51H485.028V49ZM491.75 49.4545L491.349 50.3708L491.359 50.375L491.75 49.4545ZM487.75 46.0909L486.91 46.6338L487.75 46.0909ZM487.273 35.4773L488.173 35.9123L488.175 35.9084L487.273 35.4773ZM490 32.1364L490.595 32.9401L490 32.1364ZM494.068 30.1591L493.789 29.199L493.786 29.1997L494.068 30.1591ZM499.114 29.2727L499.189 30.2699L499.191 30.2697L499.114 29.2727ZM503.818 28.7273L503.995 29.7116L504.005 29.7097L503.818 28.7273ZM506.409 27.7955L507.005 28.5982L507.013 28.5928L507.02 28.5872L506.409 27.7955ZM506.159 24L505.588 24.8209L506.159 24ZM500.545 24.0682L501.116 24.8898L501.119 24.8874L500.545 24.0682ZM499.205 26.4545V27.4545H500.074L500.195 26.594L499.205 26.4545ZM487.659 26.4545L486.662 26.3833L486.585 27.4545H487.659V26.4545ZM489.682 20.5909L488.852 20.033L488.851 20.0346L489.682 20.5909ZM494.977 16.2727L495.398 17.1798L495.403 17.1775L494.977 16.2727ZM510.386 15.5227L510.101 16.4812L510.108 16.4831L510.386 15.5227ZM515.455 17.9545L514.855 18.7546L514.86 18.7587L515.455 17.9545ZM518.636 21.5909L517.75 22.0535L517.756 22.065L518.636 21.5909ZM519.75 50V51H520.75V50H519.75ZM508.023 50H507.023V51H508.023V50ZM508.023 45.0909H509.023V44.0909H508.023V45.0909ZM507.75 45.0909V44.0909H507.151L506.868 44.6193L507.75 45.0909ZM505.205 48.25L504.578 47.4703L504.573 47.475L505.205 48.25ZM501.818 50L501.543 49.0385L501.54 49.0394L501.818 50ZM504.432 42.0455L504.011 41.1384L504.004 41.1414L504.432 42.0455ZM506.5 40.3409L505.686 39.7597L506.5 40.3409ZM507.295 34.7273H508.295V33.2377L506.917 33.8017L507.295 34.7273ZM506.227 35.1136L505.922 34.1611L505.911 34.165L506.227 35.1136ZM505.045 35.4545L504.803 34.4844L504.794 34.4865L505.045 35.4545ZM503.727 35.75L503.537 34.7682L503.531 34.7694L503.727 35.75ZM502.295 36L502.146 35.0113L502.141 35.012L502.295 36ZM499.909 36.75L500.391 37.6262L500.398 37.6221L499.909 36.75ZM498.545 38L497.69 37.4817L497.686 37.4895L498.545 38ZM499.136 41.8636L499.739 41.0658L499.136 41.8636ZM497.659 49.5455C495.54 49.5455 493.708 49.1996 492.141 48.5341L491.359 50.375C493.217 51.164 495.323 51.5455 497.659 51.5455V49.5455ZM492.151 48.5384C490.627 47.8715 489.449 46.8769 488.59 45.548L486.91 46.6338C487.991 48.3049 489.479 49.5527 491.349 50.3707L492.151 48.5384ZM488.59 45.548C487.752 44.2515 487.295 42.5458 487.295 40.3636H485.295C485.295 42.8179 485.809 44.9303 486.91 46.6338L488.59 45.548ZM487.295 40.3636C487.295 38.5651 487.603 37.0931 488.173 35.9123L486.372 35.0422C485.64 36.5584 485.295 38.344 485.295 40.3636H487.295ZM488.175 35.9084C488.759 34.6859 489.565 33.7024 490.595 32.9401L489.405 31.3326C488.102 32.2976 487.089 33.5414 486.37 35.0462L488.175 35.9084ZM490.595 32.9401C491.658 32.1535 492.905 31.5435 494.35 31.1185L493.786 29.1997C492.14 29.6838 490.676 30.3919 489.405 31.3326L490.595 32.9401ZM494.348 31.1192C495.835 30.6861 497.448 30.4016 499.189 30.2699L499.038 28.2756C497.174 28.4166 495.423 28.723 493.789 29.199L494.348 31.1192ZM499.191 30.2697C501.161 30.117 502.766 29.9321 503.995 29.7115L503.642 27.743C502.507 27.9467 500.976 28.1254 499.036 28.2757L499.191 30.2697ZM504.005 29.7097C505.245 29.4742 506.29 29.1295 507.005 28.5982L505.813 26.9927C505.467 27.2493 504.785 27.5258 503.632 27.7448L504.005 29.7097ZM507.02 28.5872C507.794 27.9898 508.205 27.1602 508.205 26.1818H506.205C506.205 26.5368 506.085 26.7829 505.798 27.0037L507.02 28.5872ZM508.205 26.1818V26.0909H506.205V26.1818H508.205ZM508.205 26.0909C508.205 24.8818 507.717 23.866 506.73 23.1791L505.588 24.8209C505.995 25.1037 506.205 25.4819 506.205 26.0909H508.205ZM506.73 23.1791C505.824 22.5484 504.714 22.2727 503.477 22.2727V24.2727C504.422 24.2727 505.101 24.4819 505.588 24.8209L506.73 23.1791ZM503.477 22.2727C502.135 22.2727 500.941 22.5707 499.972 23.249L501.119 24.8874C501.665 24.5051 502.425 24.2727 503.477 24.2727V22.2727ZM499.975 23.2466C498.958 23.9524 498.396 25.0238 498.214 26.3151L500.195 26.594C500.316 25.7338 500.648 25.2143 501.116 24.8898L499.975 23.2466ZM499.205 25.4545H487.659V27.4545H499.205V25.4545ZM488.657 26.5258C488.796 24.5801 489.411 22.7924 490.513 21.1472L488.851 20.0346C487.558 21.9652 486.826 24.0865 486.662 26.3833L488.657 26.5258ZM490.512 21.1488C491.605 19.5223 493.216 18.1924 495.398 17.1798L494.556 15.3656C492.102 16.5046 490.183 18.0535 488.852 20.033L490.512 21.1488ZM495.403 17.1775C497.55 16.1674 500.287 15.6364 503.659 15.6364V13.6364C500.092 13.6364 497.041 14.1962 494.551 15.3679L495.403 17.1775ZM503.659 15.6364C506.082 15.6364 508.226 15.9228 510.101 16.4812L510.672 14.5643C508.577 13.9408 506.236 13.6364 503.659 13.6364V15.6364ZM510.108 16.4831C511.998 17.0314 513.573 17.7936 514.855 18.7545L516.055 17.1545C514.548 16.0246 512.745 15.1656 510.665 14.5623L510.108 16.4831ZM514.86 18.7587C516.145 19.7082 517.1 20.8074 517.75 22.0535L519.523 21.1283C518.719 19.5865 517.552 18.2615 516.049 17.1504L514.86 18.7587ZM517.756 22.065C518.417 23.2928 518.75 24.6291 518.75 26.0909H520.75C520.75 24.3103 520.341 22.6465 519.517 21.1168L517.756 22.065ZM518.75 26.0909V50H520.75V26.0909H518.75ZM519.75 49H508.023V51H519.75V49ZM509.023 50V45.0909H507.023V50H509.023ZM508.023 44.0909H507.75V46.0909H508.023V44.0909ZM506.868 44.6193C506.225 45.8214 505.459 46.7635 504.578 47.4703L505.831 49.0297C506.951 48.1304 507.881 46.9665 508.632 45.5626L506.868 44.6193ZM504.573 47.475C503.697 48.1887 502.691 48.7105 501.543 49.0385L502.093 50.9615C503.491 50.5622 504.742 49.9174 505.836 49.025L504.573 47.475ZM501.54 49.0394C500.386 49.3732 499.095 49.5455 497.659 49.5455V51.5455C499.254 51.5455 500.735 51.3541 502.096 50.9606L501.54 49.0394ZM501.75 43.6364C502.847 43.6364 503.887 43.4089 504.859 42.9495L504.004 41.1414C503.31 41.4699 502.562 41.6364 501.75 41.6364V43.6364ZM504.853 42.9525C505.854 42.4876 506.68 41.809 507.314 40.9221L505.686 39.7597C505.259 40.3577 504.707 40.8154 504.011 41.1384L504.853 42.9525ZM507.314 40.9221C507.984 39.9837 508.295 38.8704 508.295 37.6364H506.295C506.295 38.5235 506.077 39.2132 505.686 39.7597L507.314 40.9221ZM508.295 37.6364V34.7273H506.295V37.6364H508.295ZM506.917 33.8017C506.61 33.9272 506.279 34.0472 505.922 34.1612L506.532 36.0661C506.933 35.9377 507.314 35.8001 507.674 35.6528L506.917 33.8017ZM505.911 34.165C505.575 34.277 505.206 34.3837 504.803 34.4844L505.288 36.4247C505.734 36.3133 506.152 36.1927 506.543 36.0623L505.911 34.165ZM504.794 34.4865C504.408 34.5868 503.989 34.6808 503.537 34.7682L503.917 36.7318C504.405 36.6374 504.865 36.5345 505.296 36.4225L504.794 34.4865ZM503.531 34.7694C503.093 34.857 502.632 34.9377 502.146 35.0113L502.445 36.9887C502.959 36.9108 503.452 36.8248 503.923 36.7306L503.531 34.7694ZM502.141 35.012C501.095 35.1754 500.176 35.4537 499.42 35.8779L500.398 37.6221C500.885 37.3494 501.556 37.1276 502.45 36.988L502.141 35.012ZM499.427 35.8738C498.696 36.2761 498.1 36.8064 497.69 37.4817L499.401 38.5183C499.597 38.1936 499.91 37.8906 500.391 37.6262L499.427 35.8738ZM497.686 37.4895C497.299 38.1404 497.114 38.8646 497.114 39.6364H499.114C499.114 39.196 499.216 38.8293 499.405 38.5105L497.686 37.4895ZM497.114 39.6364C497.114 40.8713 497.565 41.93 498.534 42.6615L499.739 41.0658C499.344 40.7669 499.114 40.3408 499.114 39.6364H497.114ZM498.534 42.6615C499.427 43.3367 500.525 43.6364 501.75 43.6364V41.6364C500.854 41.6364 500.209 41.4208 499.739 41.0658L498.534 42.6615ZM525.744 50H524.744V51H525.744V50ZM525.744 15.0909V14.0909H524.744V15.0909H525.744ZM537.926 15.0909H538.926V14.0909H537.926V15.0909ZM537.926 21.7273H536.926V22.7273H537.926V21.7273ZM538.29 21.7273V22.7273H539.064L539.258 21.9782L538.29 21.7273ZM541.312 16.3409L540.681 15.5658L540.677 15.5692L541.312 16.3409ZM547.812 14.7727L547.644 15.7584L547.659 15.761L547.675 15.7632L547.812 14.7727ZM549.381 15.1136H550.381V14.3718L549.671 14.1566L549.381 15.1136ZM549.381 25.8182L549.058 26.7645L550.381 27.2163V25.8182H549.381ZM547.085 25.3409L547.201 24.3476L547.085 25.3409ZM541.426 26.0227L541.916 26.8943L541.921 26.8918L541.426 26.0227ZM539.131 28.3409L540 28.8356L540.003 28.8299L539.131 28.3409ZM538.29 50V51H539.29V50H538.29ZM526.744 50V15.0909H524.744V50H526.744ZM525.744 16.0909H537.926V14.0909H525.744V16.0909ZM536.926 15.0909V21.7273H538.926V15.0909H536.926ZM537.926 22.7273H538.29V20.7273H537.926V22.7273ZM539.258 21.9782C539.863 19.6451 540.788 18.069 541.948 17.1126L540.677 15.5692C539.079 16.8855 537.99 18.9003 537.322 21.4763L539.258 21.9782ZM541.944 17.116C543.153 16.1307 544.556 15.6364 546.199 15.6364V13.6364C544.114 13.6364 542.26 14.2784 540.681 15.5658L541.944 17.116ZM546.199 15.6364C546.688 15.6364 547.17 15.6771 547.644 15.7584L547.981 13.7871C547.395 13.6865 546.8 13.6364 546.199 13.6364V15.6364ZM547.675 15.7632C548.172 15.8322 548.643 15.935 549.091 16.0707L549.671 14.1566C549.118 13.9892 548.544 13.8648 547.95 13.7822L547.675 15.7632ZM548.381 15.1136V25.8182H550.381V15.1136H548.381ZM549.704 24.8718C548.995 24.6298 548.155 24.459 547.201 24.3476L546.969 26.3342C547.833 26.435 548.524 26.5824 549.058 26.7645L549.704 24.8718ZM547.201 24.3476C546.268 24.2387 545.447 24.1818 544.744 24.1818V26.1818C545.345 26.1818 546.085 26.231 546.969 26.3342L547.201 24.3476ZM544.744 24.1818C543.358 24.1818 542.079 24.5002 540.931 25.1537L541.921 26.8918C542.743 26.424 543.676 26.1818 544.744 26.1818V24.1818ZM540.936 25.1511C539.801 25.7895 538.906 26.6968 538.258 27.8519L540.003 28.8299C540.477 27.985 541.112 27.3469 541.916 26.8943L540.936 25.1511ZM538.262 27.8462C537.601 29.0065 537.29 30.3422 537.29 31.8182H539.29C539.29 30.6275 539.539 29.645 540 28.8356L538.262 27.8462ZM537.29 31.8182V50H539.29V31.8182H537.29ZM538.29 49H525.744V51H538.29V49ZM558.08 62.75L558.251 61.7648L558.24 61.763L558.08 62.75ZM554.648 61.8636L553.692 61.5709L553.419 62.4623L554.289 62.797L554.648 61.8636ZM557.375 52.9545L557.708 52.0116L556.724 51.6644L556.419 52.6618L557.375 52.9545ZM560.193 53.6591L560.069 54.6514L560.071 54.6516L560.193 53.6591ZM562.398 53.4773L562.054 52.5381L562.047 52.5409L562.398 53.4773ZM563.739 52.1818L564.658 52.5757L563.739 52.1818ZM564.011 51.5455L564.93 51.9394L565.081 51.5883L564.959 51.2264L564.011 51.5455ZM551.739 15.0909V14.0909H550.347L550.791 15.41L551.739 15.0909ZM564.83 15.0909L565.803 14.8639L565.623 14.0909H564.83V15.0909ZM570.466 39.2727L569.492 39.4997L569.672 40.2727H570.466V39.2727ZM570.83 39.2727V40.2727H571.62L571.803 39.5032L570.83 39.2727ZM576.557 15.0909V14.0909H575.766L575.584 14.8604L576.557 15.0909ZM589.739 15.0909L590.686 15.4099L591.13 14.0909H589.739V15.0909ZM577.011 52.9091L576.064 52.5901L576.062 52.5951L577.011 52.9091ZM574.239 58.0909L573.455 57.47L573.448 57.4786L574.239 58.0909ZM569.511 61.75L569.095 60.8406L569.511 61.75ZM562.193 62.0909C560.806 62.0909 559.493 61.9814 558.251 61.7649L557.908 63.7351C559.272 63.9731 560.701 64.0909 562.193 64.0909V62.0909ZM558.24 61.763C556.989 61.5593 555.914 61.2792 555.007 60.9303L554.289 62.797C555.351 63.2057 556.564 63.5165 557.919 63.737L558.24 61.763ZM555.604 62.1563L558.331 53.2473L556.419 52.6618L553.692 61.5709L555.604 62.1563ZM557.042 53.8975C558.122 54.2788 559.133 54.5344 560.069 54.6514L560.317 52.6668C559.556 52.5717 558.688 52.3576 557.708 52.0116L557.042 53.8975ZM560.071 54.6516C561.042 54.7709 561.949 54.7135 562.749 54.4136L562.047 52.5409C561.634 52.6956 561.071 52.7594 560.315 52.6665L560.071 54.6516ZM562.741 54.4164C563.635 54.0896 564.282 53.4521 564.658 52.5757L562.82 51.7879C562.65 52.1843 562.403 52.4104 562.054 52.5381L562.741 54.4164ZM564.658 52.5757L564.93 51.9394L563.092 51.1515L562.82 51.7879L564.658 52.5757ZM564.959 51.2264L552.686 14.7718L550.791 15.41L563.064 51.8645L564.959 51.2264ZM551.739 16.0909H564.83V14.0909H551.739V16.0909ZM563.856 15.3179L569.492 39.4997L571.44 39.0457L565.803 14.8639L563.856 15.3179ZM570.466 40.2727H570.83V38.2727H570.466V40.2727ZM571.803 39.5032L577.53 15.3214L575.584 14.8604L569.856 39.0423L571.803 39.5032ZM576.557 16.0909H589.739V14.0909H576.557V16.0909ZM588.791 14.7719L576.064 52.5901L577.959 53.2281L590.686 15.4099L588.791 14.7719ZM576.062 52.5951C575.461 54.4124 574.591 56.035 573.455 57.47L575.023 58.7118C576.31 57.0862 577.289 55.2542 577.961 53.2231L576.062 52.5951ZM573.448 57.4786C572.36 58.8838 570.918 60.0071 569.095 60.8406L569.927 62.6594C572.014 61.705 573.724 60.3889 575.029 58.7032L573.448 57.4786ZM569.095 60.8406C567.31 61.6574 565.023 62.0909 562.193 62.0909V64.0909C565.212 64.0909 567.804 63.6305 569.927 62.6594L569.095 60.8406Z" fill="white" mask="url(#path-1-outside-1_44_158)"/>
</svg>
